<svg width="172" height="37" viewBox="0 0 172 37" fill="none" xmlns="http://www.w3.org/2000/svg">
<path d="M57.6338 9.0843V15.1744H68.5122V21.421H57.6338V27.8591H70.3118V34.0857H51.2949V2.91597H70.3118V9.07764L57.6338 9.0843Z" fill="white"/>
<path d="M81.1514 21.9622L73.5588 10.8828H80.4858L84.6528 17.0695L88.8013 10.8828H95.7267L88.1122 21.9389L96.2912 34.0824H89.349L84.631 27.0248L79.9365 34.0824H72.9926L81.1514 21.9622Z" fill="white"/>
<path d="M99.6005 2.1799H105.626V34.0857H99.6005V2.1799Z" fill="white"/>
<path d="M110.713 4.71285C110.713 4.04719 110.913 3.39649 111.287 2.84302C111.661 2.28955 112.193 1.85817 112.815 1.60343C113.438 1.3487 114.122 1.28205 114.783 1.41191C115.443 1.54177 116.05 1.86232 116.526 2.333C117.003 2.80369 117.327 3.40339 117.458 4.05625C117.59 4.70911 117.522 5.38582 117.265 6.00081C117.007 6.61579 116.57 7.14143 116.01 7.51124C115.45 7.88106 114.792 8.07845 114.118 8.07845C113.215 8.07801 112.35 7.72328 111.711 7.0922C111.072 6.46112 110.714 5.60532 110.713 4.71285ZM111.106 10.8828H117.131V34.0857H111.106V10.8828Z" fill="white"/>
<path d="M143.936 21.5359V34.0857H137.909V21.5359C137.909 17.4758 136.393 16.0636 133.37 16.0636C130.396 16.0636 128.635 18.062 128.635 21.5359V34.0857H122.609V10.8828H128.244L128.48 13.1826C130.182 11.3658 132.524 10.3016 135.388 10.3016C139.886 10.3016 143.936 12.4865 143.936 21.5359Z" fill="white"/>
<path d="M150.373 26.312V16.6831H147.242V11.2692H147.985C149.707 11.2692 150.764 10.1468 150.764 8.32991V6.24161H156.399V10.8828H161.095V16.6831H156.399V26.312C156.399 27.8591 156.887 28.7683 158.394 28.7683C159.098 28.7683 160.057 28.5752 161.09 28.2854V33.7809C159.895 34.169 157.666 34.477 156.355 34.477C152.427 34.472 150.373 31.6693 150.373 26.312Z" fill="white"/>
<path d="M163.912 31.0881C163.909 30.2971 164.144 29.523 164.587 28.864C165.03 28.205 165.66 27.6907 166.399 27.3861C167.138 27.0816 167.951 27.0005 168.737 27.1532C169.522 27.3059 170.244 27.6855 170.811 28.244C171.378 28.8024 171.764 29.5145 171.921 30.2902C172.078 31.0658 171.999 31.8701 171.693 32.6012C171.388 33.3323 170.869 33.9573 170.204 34.3971C169.539 34.8368 168.756 35.0716 167.956 35.0716C166.886 35.0716 165.859 34.6523 165.101 33.9057C164.343 33.159 163.916 32.1458 163.912 31.0881Z" fill="#6B5DA8"/>
<path d="M0 0L15.8491 10.6364L8.34919 15.9221L0 10.3133V0Z" fill="#51B0E3"/>
<path d="M40.5041 0L24.655 10.6364L32.1549 15.9221L40.5041 10.3133V0Z" fill="#DC67A2"/>
<path d="M0 26.7516V37L20.2807 23.5293L40.5041 37V27.0098L20.252 13.3442L0 26.7516Z" fill="#FCB22E"/>
</svg>
