<svg width="74" height="11" viewBox="0 0 74 11" fill="none" xmlns="http://www.w3.org/2000/svg">
<path d="M71.1667 5.52869C71.1667 4.05593 69.9728 2.86202 68.5 2.86202C67.0272 2.86202 65.8333 4.05593 65.8333 5.52869C65.8333 7.00145 67.0272 8.19535 68.5 8.19535C69.9728 8.19535 71.1667 7.00145 71.1667 5.52869ZM8.16667 5.52869C8.16667 4.05593 6.97276 2.86202 5.5 2.86202C4.02724 2.86202 2.83334 4.05593 2.83334 5.52869C2.83334 7.00145 4.02724 8.19535 5.5 8.19535C6.97276 8.19535 8.16667 7.00145 8.16667 5.52869ZM68.5 5.02869L66.5312 5.02869V6.02869L68.5 6.02869V5.02869ZM62.5938 5.02869L58.6562 5.02869V6.02869L62.5938 6.02869V5.02869ZM54.7188 5.02869L50.7812 5.02869V6.02869L54.7188 6.02869V5.02869ZM46.8438 5.02869L42.9062 5.02869V6.02869L46.8438 6.02869V5.02869ZM38.9688 5.02869L35.0312 5.02869V6.02869L38.9688 6.02869V5.02869ZM31.0938 5.02869L27.1562 5.02869V6.02869L31.0938 6.02869V5.02869ZM23.2188 5.02869L19.2812 5.02869V6.02869L23.2188 6.02869V5.02869ZM15.3438 5.02869L11.4062 5.02869V6.02869L15.3438 6.02869V5.02869ZM7.46875 5.02869L5.5 5.02869V6.02869L7.46875 6.02869V5.02869ZM73.8333 5.52869C73.8333 2.58317 71.4455 0.195353 68.5 0.195353C65.5545 0.195353 63.1667 2.58317 63.1667 5.52869C63.1667 8.47421 65.5545 10.862 68.5 10.862C71.4455 10.862 73.8333 8.47421 73.8333 5.52869ZM10.8333 5.52869C10.8333 2.58317 8.44552 0.195353 5.5 0.195353C2.55448 0.195353 0.166664 2.58317 0.166664 5.52869C0.166664 8.47421 2.55448 10.862 5.5 10.862C8.44552 10.862 10.8333 8.47421 10.8333 5.52869ZM68.5 4.52869L66.5312 4.52869V6.52869L68.5 6.52869V4.52869ZM62.5938 4.52869L58.6562 4.52869V6.52869L62.5938 6.52869V4.52869ZM54.7188 4.52869L50.7812 4.52869V6.52869L54.7188 6.52869V4.52869ZM46.8438 4.52869L42.9062 4.52869V6.52869L46.8438 6.52869V4.52869ZM38.9688 4.52869L35.0312 4.52869L35.0313 6.52869L38.9688 6.52869V4.52869ZM31.0937 4.52869L27.1562 4.52869L27.1563 6.52869L31.0938 6.52869L31.0937 4.52869ZM23.2187 4.52869L19.2812 4.52869L19.2813 6.52869L23.2188 6.52869L23.2187 4.52869ZM15.3437 4.52869L11.4062 4.52869L11.4063 6.52869L15.3438 6.52869L15.3437 4.52869ZM7.46875 4.52869L5.5 4.52869L5.5 6.52869L7.46875 6.52869L7.46875 4.52869Z" fill="#9072A7"/>
</svg>
