<svg width="11" height="124" viewBox="0 0 11 124" fill="none" xmlns="http://www.w3.org/2000/svg">
<path d="M5.49999 2.69832C4.02724 2.69832 2.83333 3.89223 2.83333 5.36499C2.83333 6.83775 4.02724 8.03166 5.5 8.03166C6.97275 8.03166 8.16666 6.83775 8.16666 5.36499C8.16666 3.89223 6.97275 2.69832 5.49999 2.69832ZM5.5 115.698C4.02725 115.698 2.83334 116.892 2.83334 118.365C2.83334 119.838 4.02725 121.032 5.50001 121.032C6.97276 121.032 8.16667 119.838 8.16667 118.365C8.16667 116.892 6.97276 115.698 5.5 115.698ZM5 5.36499L5 7.38285L6 7.38285L6 5.36499L5 5.36499ZM5 11.4186L5 15.4543L6 15.4543L6 11.4186L5 11.4186ZM5 19.49L5 23.5257L6 23.5257L6 19.49L5 19.49ZM5 27.5614L5 31.5971L6 31.5971L6 27.5614L5 27.5614ZM5 35.6328L5 39.6686L6 39.6686L6 35.6328L5 35.6328ZM5 43.7043L5 47.74L6 47.74L6 43.7043L5 43.7043ZM5 51.7757L5 55.8114L6 55.8114L6 51.7757L5 51.7757ZM5 59.8471L5 63.8828L6 63.8828L6 59.8471L5 59.8471ZM5 67.9185L5 71.9543L6 71.9543L6 67.9185L5 67.9185ZM5 75.99L5 80.0257L6 80.0257L6 75.99L5 75.99ZM5 84.0614L5 88.0971L6 88.0971L6 84.0614L5 84.0614ZM5 92.1328L5 96.1685L6 96.1685L6 92.1328L5 92.1328ZM5 100.204L5 104.24L6 104.24L6 100.204L5 100.204ZM5 108.276L5 112.311L6 112.311L6 108.276L5 108.276ZM5 116.347L5 118.365L6 118.365L6 116.347L5 116.347ZM5.49999 0.0316567C2.55448 0.0316569 0.166662 2.41947 0.166662 5.36499C0.166662 8.31051 2.55448 10.6983 5.5 10.6983C8.44551 10.6983 10.8333 8.31051 10.8333 5.36499C10.8333 2.41947 8.44551 0.0316566 5.49999 0.0316567ZM5.5 113.032C2.55449 113.032 0.166671 115.419 0.166671 118.365C0.166672 121.311 2.55449 123.698 5.50001 123.698C8.44552 123.698 10.8333 121.311 10.8333 118.365C10.8333 115.419 8.44552 113.032 5.5 113.032ZM4.5 5.36499L4.5 7.38285L6.5 7.38285L6.5 5.36499L4.5 5.36499ZM4.5 11.4186L4.5 15.4543L6.5 15.4543L6.5 11.4186L4.5 11.4186ZM4.5 19.49L4.5 23.5257L6.5 23.5257L6.5 19.49L4.5 19.49ZM4.5 27.5614L4.5 31.5971L6.5 31.5971L6.5 27.5614L4.5 27.5614ZM4.5 35.6328L4.5 39.6686L6.5 39.6686L6.5 35.6328L4.5 35.6328ZM4.5 43.7043L4.5 47.74L6.5 47.74L6.5 43.7043L4.5 43.7043ZM4.5 51.7757L4.5 55.8114L6.5 55.8114L6.5 51.7757L4.5 51.7757ZM4.5 59.8471L4.5 63.8828L6.5 63.8828L6.5 59.8471L4.5 59.8471ZM4.5 67.9185L4.5 71.9543L6.5 71.9543L6.5 67.9185L4.5 67.9185ZM4.5 75.99L4.5 80.0257L6.5 80.0257L6.5 75.99L4.5 75.99ZM4.5 84.0614L4.5 88.0971L6.5 88.0971L6.5 84.0614L4.5 84.0614ZM4.5 92.1328L4.5 96.1685L6.5 96.1685L6.5 92.1328L4.5 92.1328ZM4.5 100.204L4.5 104.24L6.5 104.24L6.5 100.204L4.5 100.204ZM4.5 108.276L4.5 112.311L6.5 112.311L6.5 108.276L4.5 108.276ZM4.5 116.347L4.5 118.365L6.5 118.365L6.5 116.347L4.5 116.347Z" fill="url(#paint0_linear_1059_120)"/>
<defs>
<linearGradient id="paint0_linear_1059_120" x1="-6.79111" y1="23.78" x2="-294.774" y2="250.574" gradientUnits="userSpaceOnUse">
<stop offset="0.6875" stop-color="#9072A7"/>
<stop offset="1" stop-color="#B9DFEB"/>
</linearGradient>
</defs>
</svg>
