<svg width="327" height="124" viewBox="0 0 327 124" fill="none" xmlns="http://www.w3.org/2000/svg">
<path d="M5.5 61.1135L5.5 60.6135L5 61.1135L5.5 61.1135ZM321.5 61.1094L321.5 61.6094L322 61.1094L321.5 61.1094ZM324.167 5.36501C324.167 3.89224 322.973 2.69834 321.5 2.69834C320.027 2.69834 318.833 3.89224 318.833 5.36501C318.833 6.83777 320.027 8.03167 321.5 8.03167C322.973 8.03167 324.167 6.83777 324.167 5.36501ZM8.16666 118.365C8.16666 116.892 6.97275 115.698 5.5 115.698C4.02725 115.698 2.83334 116.892 2.83334 118.365C2.83334 119.838 4.02725 121.032 5.5 121.032C6.97275 121.032 8.16666 119.838 8.16666 118.365ZM321 5.36501L321 7.35587L322 7.35587L322 5.36501L321 5.36501ZM321 11.3376L321 15.3194L322 15.3194L322 11.3376L321 11.3376ZM321 19.3011L321 23.2828L322 23.2828L322 19.3011L321 19.3011ZM321 27.2646L321 31.2463L322 31.2463L322 27.2646L321 27.2646ZM321 35.2281L321 39.2098L322 39.2098L322 35.2281L321 35.2281ZM321 43.1915L321 47.1733L322 47.1733L322 43.1915L321 43.1915ZM321 51.155L321 55.1368L322 55.1368L322 51.155L321 51.155ZM321 59.1185L321 61.1094L322 61.1094L322 59.1185L321 59.1185ZM321.5 60.6094L319.525 60.6094L319.525 61.6094L321.5 61.6094L321.5 60.6094ZM315.575 60.6095L311.625 60.6095L311.625 61.6095L315.575 61.6095L315.575 60.6095ZM307.675 60.6096L303.725 60.6096L303.725 61.6096L307.675 61.6096L307.675 60.6096ZM299.775 60.6097L295.825 60.6097L295.825 61.6097L299.775 61.6097L299.775 60.6097ZM291.875 60.6098L287.925 60.6098L287.925 61.6098L291.875 61.6098L291.875 60.6098ZM283.975 60.6099L280.025 60.6099L280.025 61.6099L283.975 61.6099L283.975 60.6099ZM276.075 60.61L272.125 60.61L272.125 61.61L276.075 61.61L276.075 60.61ZM268.175 60.6101L264.225 60.6101L264.225 61.6101L268.175 61.6101L268.175 60.6101ZM260.275 60.6102L256.325 60.6102L256.325 61.6102L260.275 61.6102L260.275 60.6102ZM252.375 60.6103L248.425 60.6103L248.425 61.6103L252.375 61.6103L252.375 60.6103ZM244.475 60.6104L240.525 60.6104L240.525 61.6104L244.475 61.6104L244.475 60.6104ZM236.575 60.6105L232.625 60.6105L232.625 61.6105L236.575 61.6105L236.575 60.6105ZM228.675 60.6106L224.725 60.6106L224.725 61.6106L228.675 61.6106L228.675 60.6106ZM220.775 60.6107L216.825 60.6108L216.825 61.6108L220.775 61.6107L220.775 60.6107ZM212.875 60.6108L208.925 60.6109L208.925 61.6109L212.875 61.6108L212.875 60.6108ZM204.975 60.6109L201.025 60.611L201.025 61.611L204.975 61.6109L204.975 60.6109ZM197.075 60.611L193.125 60.6111L193.125 61.6111L197.075 61.611L197.075 60.611ZM189.175 60.6111L185.225 60.6112L185.225 61.6112L189.175 61.6111L189.175 60.6111ZM181.275 60.6112L177.325 60.6113L177.325 61.6113L181.275 61.6112L181.275 60.6112ZM173.375 60.6113L169.425 60.6114L169.425 61.6114L173.375 61.6113L173.375 60.6113ZM165.475 60.6114L161.525 60.6115L161.525 61.6115L165.475 61.6114L165.475 60.6114ZM157.575 60.6115L153.625 60.6116L153.625 61.6116L157.575 61.6115L157.575 60.6115ZM149.675 60.6116L145.725 60.6117L145.725 61.6117L149.675 61.6116L149.675 60.6116ZM141.775 60.6117L137.825 60.6118L137.825 61.6118L141.775 61.6117L141.775 60.6117ZM133.875 60.6118L129.925 60.6119L129.925 61.6119L133.875 61.6118L133.875 60.6118ZM125.975 60.6119L122.025 60.612L122.025 61.612L125.975 61.6119L125.975 60.6119ZM118.075 60.6121L114.125 60.6121L114.125 61.6121L118.075 61.6121L118.075 60.6121ZM110.175 60.6122L106.225 60.6122L106.225 61.6122L110.175 61.6122L110.175 60.6122ZM102.275 60.6123L98.3251 60.6123L98.3251 61.6123L102.275 61.6123L102.275 60.6123ZM94.3751 60.6124L90.4251 60.6124L90.4251 61.6124L94.3751 61.6124L94.3751 60.6124ZM86.4751 60.6125L82.5251 60.6125L82.5251 61.6125L86.4751 61.6125L86.4751 60.6125ZM78.5751 60.6126L74.6251 60.6126L74.6251 61.6126L78.5751 61.6126L78.5751 60.6126ZM70.6751 60.6127L66.7251 60.6127L66.7251 61.6127L70.6751 61.6127L70.6751 60.6127ZM62.7751 60.6128L58.8251 60.6128L58.8251 61.6128L62.7751 61.6128L62.7751 60.6128ZM54.8751 60.6129L50.9251 60.6129L50.9251 61.6129L54.8751 61.6129L54.8751 60.6129ZM46.9751 60.613L43.0251 60.613L43.0251 61.613L46.9751 61.613L46.9751 60.613ZM39.0751 60.6131L35.1251 60.6131L35.1251 61.6131L39.0751 61.6131L39.0751 60.6131ZM31.1751 60.6132L27.225 60.6132L27.225 61.6132L31.1751 61.6132L31.1751 60.6132ZM23.275 60.6133L19.325 60.6133L19.325 61.6133L23.275 61.6133L23.275 60.6133ZM15.375 60.6134L11.425 60.6135L11.425 61.6135L15.375 61.6134L15.375 60.6134ZM7.47498 60.6135L5.5 60.6135L5.5 61.6135L7.47498 61.6135L7.47498 60.6135ZM5 61.1135L5 63.1582L6 63.1582L6 61.1135L5 61.1135ZM5 67.2476L5 71.337L6 71.337L6 67.2476L5 67.2476ZM5 75.4264L5 79.5158L6 79.5158L6 75.4264L5 75.4264ZM5 83.6052L5 87.6946L6 87.6946L6 83.6052L5 83.6052ZM5 91.7839L5 95.8733L6 95.8733L6 91.7839L5 91.7839ZM5 99.9627L5 104.052L6 104.052L6 99.9627L5 99.9627ZM5 108.142L5 112.231L6 112.231L6 108.142L5 108.142ZM5 116.32L5 118.365L6 118.365L6 116.32L5 116.32ZM5.5 61.1135L5.5 60.1135L4.5 61.1135L5.5 61.1135ZM321.5 61.1094L321.5 62.1094L322.5 61.1094L321.5 61.1094ZM326.833 5.36501C326.833 2.41949 324.446 0.0316697 321.5 0.0316696C318.554 0.0316695 316.167 2.41949 316.167 5.36501C316.167 8.31052 318.554 10.6983 321.5 10.6983C324.446 10.6983 326.833 8.31052 326.833 5.36501ZM10.8333 118.365C10.8333 115.419 8.44553 113.032 5.5 113.032C2.55447 113.032 0.166657 115.419 0.166656 118.365C0.166656 121.31 2.55447 123.698 5.5 123.698C8.44553 123.698 10.8333 121.31 10.8333 118.365ZM320.5 5.36501L320.5 7.35587L322.5 7.35587L322.5 5.36501L320.5 5.36501ZM320.5 11.3376L320.5 15.3194L322.5 15.3194L322.5 11.3376L320.5 11.3376ZM320.5 19.3011L320.5 23.2828L322.5 23.2828L322.5 19.3011L320.5 19.3011ZM320.5 27.2646L320.5 31.2463L322.5 31.2463L322.5 27.2646L320.5 27.2646ZM320.5 35.2281L320.5 39.2098L322.5 39.2098L322.5 35.2281L320.5 35.2281ZM320.5 43.1915L320.5 47.1733L322.5 47.1733L322.5 43.1915L320.5 43.1915ZM320.5 51.155L320.5 55.1368L322.5 55.1368L322.5 51.155L320.5 51.155ZM320.5 59.1185L320.5 61.1094L322.5 61.1094L322.5 59.1185L320.5 59.1185ZM321.5 60.1094L319.525 60.1094L319.525 62.1094L321.5 62.1094L321.5 60.1094ZM315.575 60.1095L311.625 60.1095L311.625 62.1095L315.575 62.1095L315.575 60.1095ZM307.675 60.1096L303.725 60.1096L303.725 62.1096L307.675 62.1096L307.675 60.1096ZM299.775 60.1097L295.825 60.1097L295.825 62.1097L299.775 62.1097L299.775 60.1097ZM291.875 60.1098L287.925 60.1098L287.925 62.1098L291.875 62.1098L291.875 60.1098ZM283.975 60.1099L280.025 60.1099L280.025 62.1099L283.975 62.1099L283.975 60.1099ZM276.075 60.11L272.125 60.11L272.125 62.11L276.075 62.11L276.075 60.11ZM268.175 60.1101L264.225 60.1101L264.225 62.1101L268.175 62.1101L268.175 60.1101ZM260.275 60.1102L256.325 60.1102L256.325 62.1102L260.275 62.1102L260.275 60.1102ZM252.375 60.1103L248.425 60.1103L248.425 62.1103L252.375 62.1103L252.375 60.1103ZM244.475 60.1104L240.525 60.1104L240.525 62.1104L244.475 62.1104L244.475 60.1104ZM236.575 60.1105L232.625 60.1105L232.625 62.1105L236.575 62.1105L236.575 60.1105ZM228.675 60.1106L224.725 60.1106L224.725 62.1106L228.675 62.1106L228.675 60.1106ZM220.775 60.1107L216.825 60.1108L216.825 62.1108L220.775 62.1107L220.775 60.1107ZM212.875 60.1108L208.925 60.1109L208.925 62.1109L212.875 62.1108L212.875 60.1108ZM204.975 60.1109L201.025 60.111L201.025 62.111L204.975 62.1109L204.975 60.1109ZM197.075 60.111L193.125 60.1111L193.125 62.1111L197.075 62.111L197.075 60.111ZM189.175 60.1111L185.225 60.1112L185.225 62.1112L189.175 62.1111L189.175 60.1111ZM181.275 60.1112L177.325 60.1113L177.325 62.1113L181.275 62.1112L181.275 60.1112ZM173.375 60.1113L169.425 60.1114L169.425 62.1114L173.375 62.1113L173.375 60.1113ZM165.475 60.1114L161.525 60.1115L161.525 62.1115L165.475 62.1114L165.475 60.1114ZM157.575 60.1115L153.625 60.1116L153.625 62.1116L157.575 62.1115L157.575 60.1115ZM149.675 60.1116L145.725 60.1117L145.725 62.1117L149.675 62.1116L149.675 60.1116ZM141.775 60.1117L137.825 60.1118L137.825 62.1118L141.775 62.1117L141.775 60.1117ZM133.875 60.1118L129.925 60.1119L129.925 62.1119L133.875 62.1118L133.875 60.1118ZM125.975 60.1119L122.025 60.112L122.025 62.112L125.975 62.1119L125.975 60.1119ZM118.075 60.1121L114.125 60.1121L114.125 62.1121L118.075 62.1121L118.075 60.1121ZM110.175 60.1122L106.225 60.1122L106.225 62.1122L110.175 62.1122L110.175 60.1122ZM102.275 60.1123L98.3251 60.1123L98.3251 62.1123L102.275 62.1123L102.275 60.1123ZM94.3751 60.1124L90.4251 60.1124L90.4251 62.1124L94.3751 62.1124L94.3751 60.1124ZM86.4751 60.1125L82.5251 60.1125L82.5251 62.1125L86.4751 62.1125L86.4751 60.1125ZM78.5751 60.1126L74.6251 60.1126L74.6252 62.1126L78.5751 62.1126L78.5751 60.1126ZM70.6751 60.1127L66.7251 60.1127L66.7252 62.1127L70.6752 62.1127L70.6751 60.1127ZM62.7751 60.1128L58.8251 60.1128L58.8251 62.1128L62.7751 62.1128L62.7751 60.1128ZM54.8751 60.1129L50.9251 60.1129L50.9251 62.1129L54.8751 62.1129L54.8751 60.1129ZM46.9751 60.113L43.0251 60.113L43.0251 62.113L46.9751 62.113L46.9751 60.113ZM39.0751 60.1131L35.125 60.1131L35.1251 62.1131L39.0751 62.1131L39.0751 60.1131ZM31.175 60.1132L27.225 60.1132L27.2251 62.1132L31.1751 62.1132L31.175 60.1132ZM23.275 60.1133L19.325 60.1133L19.325 62.1133L23.2751 62.1133L23.275 60.1133ZM15.375 60.1134L11.425 60.1135L11.425 62.1135L15.375 62.1134L15.375 60.1134ZM7.47495 60.1135L5.5 60.1135L5.5 62.1135L7.47498 62.1135L7.47495 60.1135ZM4.5 61.1135L4.5 63.1582L6.5 63.1582L6.5 61.1135L4.5 61.1135ZM4.5 67.2476L4.5 71.337L6.5 71.337L6.5 67.2476L4.5 67.2476ZM4.5 75.4264L4.5 79.5158L6.5 79.5158L6.5 75.4264L4.5 75.4264ZM4.5 83.6052L4.5 87.6946L6.5 87.6946L6.5 83.6052L4.5 83.6052ZM4.5 91.7839L4.5 95.8733L6.5 95.8733L6.5 91.7839L4.5 91.7839ZM4.5 99.9627L4.5 104.052L6.5 104.052L6.5 99.9627L4.5 99.9627ZM4.5 108.142L4.5 112.231L6.5 112.231L6.5 108.142L4.5 108.142ZM4.5 116.32L4.5 118.365L6.5 118.365L6.5 116.32L4.5 116.32Z" fill="url(#paint0_linear_1059_121)"/>
<defs>
<linearGradient id="paint0_linear_1059_121" x1="1.68061e+06" y1="109.811" x2="1.68061e+06" y2="-160.518" gradientUnits="userSpaceOnUse">
<stop offset="0.6875" stop-color="#9072A7"/>
<stop offset="1" stop-color="#B9DFEB"/>
</linearGradient>
</defs>
</svg>
