<svg width="27" height="27" viewBox="0 0 27 27" fill="none" xmlns="http://www.w3.org/2000/svg">
<path d="M0.824331 26.1918C1.25588 26.6234 1.77373 26.8391 2.3779 26.8391C2.99285 26.8284 3.51071 26.6126 3.93147 26.1918L13.5603 16.5629L23.1892 26.1918C23.61 26.6126 24.1224 26.823 24.7266 26.823C25.3308 26.823 25.8486 26.6072 26.2802 26.1756C26.7117 25.7441 26.9221 25.2316 26.9113 24.6383C26.9113 24.0341 26.7009 23.5216 26.2802 23.1009L16.6513 13.472L26.2964 3.82693C26.7063 3.41696 26.9113 2.9099 26.9113 2.30573C26.9221 1.69078 26.7117 1.16753 26.2802 0.73598C25.8486 0.304434 25.3254 0.0940541 24.7104 0.104844C24.1063 0.104845 23.5992 0.309828 23.1892 0.719798L13.5442 10.3649L3.91528 0.73598C3.50531 0.326011 2.99285 0.115633 2.3779 0.104844C1.77373 0.0832671 1.25588 0.288251 0.824331 0.719798C0.392785 1.15134 0.182405 1.67459 0.193195 2.28955C0.203983 2.9045 0.414362 3.41696 0.824331 3.82693L10.4532 13.4558L0.824331 23.0847C0.403573 23.5054 0.1878 24.0233 0.177012 24.6383C0.177011 25.2424 0.392785 25.7603 0.824331 26.1918Z" fill="#BBB8CA"/>
</svg>
