<svg width="22" height="22" viewBox="0 0 22 22" fill="none" xmlns="http://www.w3.org/2000/svg">
<path d="M20.4848 6.45449V20.091H6.84828V6.45449H20.4848ZM20.4848 4.93931H6.84828C6.44644 4.93931 6.06105 5.09895 5.7769 5.3831C5.49275 5.66725 5.33311 6.05264 5.33311 6.45449V20.091C5.33311 20.4929 5.49275 20.8783 5.7769 21.1624C6.06105 21.4466 6.44644 21.6062 6.84828 21.6062H20.4848C20.8867 21.6062 21.2721 21.4466 21.5562 21.1624C21.8404 20.8783 22 20.4929 22 20.091V6.45449C22 6.05264 21.8404 5.66725 21.5562 5.3831C21.2721 5.09895 20.8867 4.93931 20.4848 4.93931Z" fill="#E7E7E7"/>
<path d="M2.30277 12.5152H0.787598V1.90897C0.787598 1.50712 0.947231 1.12173 1.23138 0.837582C1.51553 0.553432 1.90092 0.393799 2.30277 0.393799H12.909V1.90897H2.30277V12.5152Z" fill="#E7E7E7"/>
</svg>
