<svg width="28" height="21" viewBox="0 0 28 21" fill="none" xmlns="http://www.w3.org/2000/svg">
<path d="M5.05666 1.97382C6.63262 1.13442 8.38335 0.559715 10.1816 0.505931L10.4209 0.794795C8.83032 1.2571 7.27872 1.86625 5.84768 2.69961C5.25578 3.0616 4.65414 3.42298 4.14141 3.89133C5.43238 3.25135 6.75197 2.6422 8.15317 2.27719C8.90827 2.06568 9.67189 1.87109 10.4532 1.78225C12.3245 1.52119 14.2287 1.40576 16.1115 1.61486C17.4566 1.76748 18.7833 2.05148 20.0721 2.46272C21.1997 2.83645 22.2944 3.30153 23.3452 3.85325C23.0657 3.57224 22.7339 3.35106 22.405 3.1329C20.8942 2.13276 19.2068 1.42027 17.4762 0.88786C17.6321 0.744032 17.7344 0.460002 17.9914 0.504722C20.2627 0.64855 22.4464 1.53086 24.2922 2.83195C24.4243 2.91716 24.5741 2.99875 24.6307 3.15526C25.7756 5.43476 26.6244 7.85687 27.2072 10.3358C27.6895 12.4195 27.9672 14.5521 27.9982 16.6908C28.0031 16.7978 28.0031 16.9132 27.927 16.9996C26.7024 18.6977 24.7671 19.7982 22.7345 20.2472C22.0534 20.3977 21.3592 20.4823 20.6616 20.4998C20.1263 19.8609 19.5995 19.2151 19.0814 18.5624C19.8091 18.3738 20.4978 18.0674 21.1573 17.7133C22.0208 17.2111 22.8337 16.5766 23.4049 15.7517C22.5865 16.2726 21.7309 16.7404 20.8193 17.0824C20.2373 17.3226 19.645 17.5378 19.0442 17.7272C18.0133 18.0535 16.9415 18.23 15.8692 18.3557C14.6318 18.4886 13.381 18.4494 12.1461 18.3098C10.863 18.1732 9.60673 17.8517 8.38274 17.4528C7.3731 17.0884 6.34946 16.7289 5.43786 16.1542C5.20463 16.0079 4.97201 15.8617 4.73148 15.7275C5.09198 16.2799 5.59862 16.7186 6.11014 17.1289C6.94623 17.7604 7.90837 18.2173 8.91253 18.5171C8.46032 19.0879 8.00032 19.6525 7.53265 20.211C7.42304 20.324 7.35179 20.5373 7.15632 20.4944C6.18994 20.4563 5.2329 20.2915 4.31009 20.0043C3.04225 19.5692 1.8341 18.908 0.883526 17.9587C0.552257 17.6329 0.227078 17.2842 0.000548577 16.8769C-0.0232005 13.3278 0.725808 9.80459 1.92666 6.47177C2.35658 5.29697 2.8413 4.13728 3.4332 3.0338C3.92523 2.61742 4.49399 2.29048 5.05666 1.97382ZM9.23649 9.39788C8.3864 9.49276 7.64469 10.0874 7.31099 10.8591C6.77207 12.014 7.14048 13.5308 8.21041 14.2572C8.75116 14.6277 9.45693 14.7612 10.0927 14.5835C10.7911 14.4137 11.3648 13.8868 11.6735 13.2528C12.1929 12.2074 11.9853 10.841 11.1315 10.0282C10.6304 9.56407 9.92217 9.3024 9.23649 9.39788ZM17.8422 9.41842C16.6547 9.6384 15.8022 10.8035 15.8174 11.9789C15.8028 12.906 16.268 13.8487 17.0779 14.334C17.615 14.6736 18.3038 14.7461 18.9103 14.5654C19.5844 14.3793 20.1343 13.8596 20.4308 13.2401C20.9697 12.1518 20.6981 10.7099 19.7555 9.92545C19.4938 9.70647 19.1866 9.54749 18.8559 9.45985C18.5252 9.37221 18.179 9.35806 17.8422 9.41842Z" fill="#DCDAE7"/>
</svg>
