<svg width="24" height="31" viewBox="0 0 24 31" fill="none" xmlns="http://www.w3.org/2000/svg">
<path d="M16.8579 17.7353H6.53805C6.28396 17.7353 6.07385 17.8188 5.90772 17.9856C5.74159 18.1426 5.65852 18.3389 5.65852 18.5744C5.65852 18.8296 5.74159 19.0405 5.90772 19.2074C6.07385 19.3742 6.28396 19.4576 6.53805 19.4576H16.8579C17.1022 19.4576 17.3074 19.3742 17.4736 19.2074C17.6495 19.0405 17.7374 18.8296 17.7374 18.5744C17.7374 18.3389 17.6495 18.1426 17.4736 17.9856C17.3074 17.8188 17.1022 17.7353 16.8579 17.7353ZM16.8579 22.49H6.53805C6.28396 22.49 6.07385 22.5734 5.90772 22.7403C5.74159 22.9071 5.65852 23.1181 5.65852 23.3732C5.65852 23.6088 5.74159 23.8099 5.90772 23.9768C6.07385 24.1436 6.28396 24.227 6.53805 24.227H16.8579C17.1022 24.227 17.3074 24.1436 17.4736 23.9768C17.6495 23.8099 17.7374 23.6088 17.7374 23.3732C17.7374 23.1181 17.6495 22.9071 17.4736 22.7403C17.3074 22.5734 17.1022 22.49 16.8579 22.49ZM4.47115 30.8364H19.218C20.6838 30.8364 21.7833 30.4635 22.5162 29.7177C23.2589 28.9719 23.6303 27.858 23.6303 26.3762V13.7314C23.6303 13.1132 23.5961 12.5881 23.5277 12.1563C23.4593 11.7246 23.3224 11.332 23.1172 10.9787C22.9218 10.6254 22.6286 10.2476 22.2377 9.84526L14.791 2.23486C14.2339 1.66567 13.6867 1.29276 13.1492 1.11611C12.6117 0.929654 11.9276 0.836426 11.097 0.836426H4.47115C3.01504 0.836426 1.91563 1.21425 1.17291 1.96989C0.430195 2.71572 0.0588379 3.82956 0.0588379 5.3114V26.3762C0.0588379 27.858 0.430195 28.9719 1.17291 29.7177C1.91563 30.4635 3.01504 30.8364 4.47115 30.8364ZM4.6324 28.3487C3.93855 28.3487 3.4206 28.1671 3.07856 27.804C2.73652 27.4508 2.5655 26.9355 2.5655 26.2584V5.42916C2.5655 4.76184 2.73652 4.25154 3.07856 3.89825C3.43037 3.53515 3.95321 3.3536 4.64706 3.3536H10.6718V11.1848C10.6718 12.1269 10.9015 12.8286 11.3608 13.2898C11.8299 13.751 12.5286 13.9817 13.457 13.9817H21.1383V26.2584C21.1383 26.9355 20.9624 27.4508 20.6105 27.804C20.2587 28.1671 19.7359 28.3487 19.042 28.3487H4.6324ZM13.7209 11.7147C13.4375 11.7147 13.2323 11.651 13.1052 11.5234C12.9782 11.3958 12.9146 11.1946 12.9146 10.9198V3.75105L20.7425 11.7147H13.7209Z" fill="#E7E7E7"/>
</svg>
