<svg width="21" height="21" viewBox="0 0 21 21" fill="none" xmlns="http://www.w3.org/2000/svg">
<path d="M0 10.7531C0 5.09041 4.63592 0.5 10.353 0.5C16.0706 0.5 20.7059 5.09041 20.7059 10.7531C20.7059 15.2818 17.7432 19.1237 13.6319 20.481C13.107 20.5817 12.9207 20.262 12.9207 19.9891C12.9207 19.8771 12.922 19.6808 12.9238 19.4184C12.9273 18.8896 12.9327 18.0923 12.9327 17.1754C12.9327 16.2189 12.6018 15.5948 12.2305 15.2767C14.5358 15.0229 16.9578 14.1557 16.9578 10.2177C16.9578 9.09823 16.5561 8.1836 15.8923 7.46559C15.9998 7.2073 16.3543 6.1645 15.7908 4.75219C15.7908 4.75219 14.9226 4.47662 12.9466 5.8032C12.1192 5.57595 11.2328 5.46209 10.353 5.45823C9.47313 5.46209 8.58744 5.57595 7.76167 5.8032C5.78323 4.47662 4.91386 4.75219 4.91386 4.75219C4.35174 6.1645 4.70608 7.2073 4.81358 7.46559C4.15126 8.1836 3.74682 9.09831 3.74682 10.2177C3.74682 14.1464 6.16421 15.0255 8.4637 15.2849C8.16765 15.5409 7.8993 15.9931 7.80641 16.6559C7.21562 16.9178 5.71706 17.371 4.79369 15.8035C4.79369 15.8035 4.24626 14.8193 3.20662 14.7469C3.20662 14.7469 2.19653 14.7339 3.13582 15.3703C3.13582 15.3703 3.81438 15.6853 4.28532 16.8704C4.28532 16.8704 4.89307 18.7004 7.77336 18.0802C7.77576 18.5488 7.77974 19.0027 7.78285 19.3578C7.78543 19.652 7.78741 19.8784 7.78741 19.9891C7.78741 20.26 7.59741 20.5773 7.08003 20.4824C2.96644 19.1266 0 15.2833 0 10.7531Z" fill="#DCDAE7"/>
<path d="M3.70645 15.1344C3.77957 15.1694 3.86002 15.1541 3.88259 15.103C3.90847 15.0517 3.86591 14.9813 3.79118 14.9479C3.71677 14.9125 3.63632 14.9272 3.61415 14.9798C3.58997 15.0311 3.63189 15.1008 3.70645 15.1344Z" fill="#DCDAE7"/>
<path d="M4.17828 15.507C4.24333 15.5788 4.33918 15.6 4.38819 15.5545C4.43946 15.5085 4.42632 15.4133 4.35909 15.3408C4.2917 15.269 4.19875 15.2477 4.14821 15.2932C4.09847 15.3394 4.11105 15.4352 4.17828 15.507Z" fill="#DCDAE7"/>
<path d="M4.5054 16.0434C4.56901 16.1348 4.67203 16.1759 4.73507 16.1321C4.79948 16.0873 4.7994 15.9776 4.73652 15.8846C4.67203 15.7938 4.57062 15.7543 4.50677 15.7983C4.44245 15.8422 4.44244 15.952 4.5054 16.0434Z" fill="#DCDAE7"/>
<path d="M5.05744 16.7618C5.1453 16.8467 5.26526 16.8633 5.3216 16.8012C5.38166 16.7397 5.35449 16.6211 5.26525 16.5383C5.17674 16.4542 5.05607 16.4367 4.99907 16.4989C4.94256 16.5611 4.96763 16.6788 5.05744 16.7618Z" fill="#DCDAE7"/>
<path d="M5.82293 17.11C5.93934 17.1442 6.05493 17.1076 6.07968 17.027C6.10387 16.9451 6.02769 16.8514 5.91161 16.8163C5.79431 16.7797 5.67823 16.8179 5.65405 16.8989C5.63059 16.9803 5.70669 17.0747 5.82293 17.11Z" fill="#DCDAE7"/>
<path d="M6.7245 17.2796C6.84671 17.278 6.94546 17.2077 6.94256 17.1228C6.94256 17.0385 6.84244 16.9703 6.72023 16.9727C6.59737 16.9748 6.50088 17.0445 6.50088 17.1301C6.50217 17.2136 6.60157 17.2822 6.7245 17.2796Z" fill="#DCDAE7"/>
<path d="M7.5985 17.2807C7.71982 17.2581 7.80479 17.1731 7.79012 17.0903C7.77464 17.0061 7.66589 16.9564 7.54433 16.9775C7.42526 16.9995 7.33869 17.0845 7.35352 17.1694C7.36875 17.2514 7.47919 17.3025 7.5985 17.2807Z" fill="#DCDAE7"/>
</svg>
